<?xml version="1.0" encoding="UTF-8"?><svg xmlns="http://www.w3.org/2000/svg" viewBox="0 0 1143 1172"><defs><style>.cls-1{translate}</style></defs><g id="_レイヤー_2"><rect class="cls-1" y="92" width="1080" height="1080"/><rect class="cls-1" x="1139" width="4" height="4"/></g><g id="_レイヤー_1"><path class="cls-1" d="M586.355,517.012l-72.428-125.448h-144.855l-36.998,64.081h0l-35.43,61.367,72.428,125.448h144.855l36.998-64.081h0l35.43-61.367ZM318.789,517.012l29.836-51.677c10.456-17.146,28.408-43.148,35.714-47.464,7.5-4.431,37.952-6.833,57.229-7.128h61.286l61.355,106.27-29.836,51.677c-10.456,17.146-28.408,43.149-35.714,47.463-7.5,4.432-37.952,6.834-57.229,7.129h-61.285l-61.355-106.27Z"/><polygon class="cls-1" points="511.993 751.952 530.597 719.728 519.524 700.549 495.383 742.362 511.993 751.952"/><path class="cls-1" d="M782.327,747.157l-72.429-125.448h-144.855l-18.628,32.264,11.854,20.532c8.956-12.899,17.753-23.955,22.042-26.489,7.5-4.431,37.951-6.833,57.229-7.128h61.286l61.354,106.27-29.83,51.668c-10.454,17.146-28.412,43.157-35.719,47.472-7.5,4.431-37.952,6.834-57.23,7.129h-66.822v19.179h139.319l36.998-64.081h0s35.431-61.367,35.431-61.367Z"/><path class="cls-1" d="M584.625,747.552l-69.659-120.654-16.61,9.589,64.124,111.064-29.83,51.668c-10.456,17.146-28.414,43.157-35.719,47.472-7.5,4.431-37.952,6.834-57.23,7.129h-66.822v19.179h139.319l36.998-64.081h0s35.431-61.367,35.431-61.367Z"/><polygon class="cls-1" points="512.988 523.758 531.592 491.535 520.519 472.356 496.378 514.169 512.988 523.758"/><path class="cls-1" d="M783.322,518.964l-72.429-125.448h-144.855l-18.628,32.264,11.854,20.532c8.956-12.899,17.753-23.955,22.042-26.489,7.5-4.431,37.951-6.833,57.229-7.128h61.286l61.354,106.27-29.83,51.668c-10.454,17.146-28.412,43.157-35.719,47.472-7.5,4.431-37.952,6.834-57.23,7.129h-66.822v19.179h139.319l36.998-64.081h0s35.431-61.367,35.431-61.367Z"/></g></svg>