<?xml version="1.0" encoding="UTF-8"?>
<svg id="_レイヤー_2" data-name="レイヤー 2" xmlns="http://www.w3.org/2000/svg" viewBox="0 0 456.139 218.818">
  <defs>
    <style>
      .cls-1 {
        stroke-width: 2px;
      }

      .cls-1, .cls-2 {
        fill: none;
      }

      .cls-1, .cls-2, .cls-3 {
        stroke: #1b1b1b;
        stroke-miterlimit: 10;
      }

      .cls-4 {
        fill: #2f5596;
      }

      .cls-5 {
        fill: #e5e5e5;
      }

      .cls-6 {
        fill: #f05a24;
      }

      .cls-3 {
        stroke-width: 2.052px;
      }

      .cls-3, .cls-7 {
        fill: #1b1b1b;
      }
    </style>
  </defs>
  <g id="_レイヤー_3" data-name="レイヤー 3">
    <g>
      <path class="cls-5" d="M4.314,14.897v8.125H1.19v-2.927h.729v-5.197h2.396ZM8.656,13.104v11.752h-3.291v-11.752h3.291ZM12.845,23.022h-3.123v-8.125h2.381v5.197h.742v2.927Z"/>
      <path class="cls-5" d="M15.289,24.857v-9.343h2.619v6.835h1.471v-9.231h3.277v9.231h1.472v-6.835h2.619v9.343h-11.458Z"/>
      <path class="cls-5" d="M40.761,15.472h-11.472v-1.597h4.118v-.756h3.222v.756h4.132v1.597ZM40.747,19.394v5.463h-2.508v-3.67h-6.443v3.67h-2.507v-5.463h11.458ZM39.809,19.044h-9.539v-3.236h9.539v3.236ZM37.707,21.537v3.152h-5.337v-3.152h5.337ZM32.917,17.139v.561h4.202v-.561h-4.202ZM35.438,23.358v-.49h-.841v.49h.841Z"/>
      <path class="cls-5" d="M50.629,15.556h3.838v4.734h-.7v.378h.98v1.485h-.98v2.717h-3.222v-2.717h-7.256v-1.485h7.256v-.378h-6.99v-4.734h3.838v-.392h-4.104v-1.499h4.104v-.561h3.236v.561h4.118v1.499h-4.118v.392ZM48.892,24.619h-2.76v-.659h-1.484v-1.373h4.244v2.031ZM47.393,17.335v-.406h-1.078v.406h1.078ZM47.393,18.918v-.392h-1.078v.392h1.078ZM50.629,17.335h1.078v-.406h-1.078v.406ZM51.707,18.526h-1.078v.392h1.078v-.392Z"/>
      <path class="cls-4" d="M3.922,58.322h4.343v-5.883H.7v-2.521h10.086v10.926H3.922v-2.521ZM11.206,49.917h2.521v2.521h-2.521v-2.521ZM12.747,51.458v-.561h-.561v.561h.561Z"/>
      <path class="cls-4" d="M15.821,50.057h10.365v10.646h-10.365v-10.646ZM23.665,58.181v-5.743h-5.322v5.743h5.322Z"/>
      <path class="cls-4" d="M39.206,60.843h-8.685v-2.521h6.163v-5.883h-3.361v4.062h-4.202v-2.521h1.681v-4.062h8.404v10.926ZM40.467,49.917v1.961h-.841v-1.961h.841ZM41.728,49.917v1.961h-.841v-1.961h.841Z"/>
      <path class="cls-4" d="M54.187,49.917v2.521h-10.226v-2.521h10.226ZM54.187,60.843h-6.863v-2.521h4.342v-2.662h-7.704v-2.521h10.226v7.705Z"/>
      <path class="cls-4" d="M67.626,50.057v2.521h-9.104v-2.521h9.104ZM67.626,53.839v2.521h-9.104v-2.521h9.104ZM67.626,58.322v2.521h-9.104v-2.521h9.104Z"/>
      <path class="cls-4" d="M77.704,49.917v2.521h-5.743v-2.521h5.743ZM82.187,60.843h-10.085v-2.521h7.563v-5.883h2.521v8.405Z"/>
      <path class="cls-4" d="M95.206,60.843h-8.685v-2.521h6.163v-5.883h-3.361v4.062h-4.202v-2.521h1.681v-4.062h8.404v10.926ZM96.467,49.917v1.961h-.841v-1.961h.841ZM97.728,49.917v1.961h-.841v-1.961h.841Z"/>
      <path class="cls-6" d="M12.326,96.703H1.821v-2.521h7.984v-5.043H1.821v-2.521h10.505v10.085Z"/>
      <path class="cls-6" d="M21.704,85.917v2.521h-5.743v-2.521h5.743ZM26.187,96.843h-10.085v-2.521h7.563v-5.883h2.521v8.405Z"/>
      <path class="cls-6" d="M37.385,92.221v4.623h-6.863v-2.521h4.342v-2.101h-5.463v-2.521h11.206v2.521h-3.222ZM39.906,85.917v2.521h-9.805v-2.521h9.805Z"/>
      <path class="cls-6" d="M49.284,96.843v-3.922h-2.941v3.922h-2.521v-6.304h7.704v-2.241h-7.704v-2.521h10.226v7.144h-2.241v1.401h2.661v2.521h-5.183Z"/>
      <path class="cls-6" d="M61.323,92.221v4.623h-2.521v-11.346h2.521v4.202h6.303v2.521h-6.303Z"/>
      <path class="cls-5" d="M3.922,130.322h4.343v-5.883H.7v-2.521h10.086v10.926H3.922v-2.521ZM11.206,121.917h2.521v2.521h-2.521v-2.521ZM12.747,123.458v-.561h-.561v.561h.561Z"/>
      <path class="cls-5" d="M15.821,122.057h10.365v10.646h-10.365v-10.646ZM23.665,130.181v-5.743h-5.322v5.743h5.322Z"/>
      <path class="cls-5" d="M35.704,121.917v2.521h-5.743v-2.521h5.743ZM35.704,125.559v2.521h-5.743v-2.521h5.743ZM40.187,132.843h-10.085v-2.521h7.563v-5.883h2.521v8.405ZM38.646,122.057v1.821h-.98v-1.821h.98ZM40.187,122.057v1.821h-.98v-1.821h.98Z"/>
      <path class="cls-5" d="M53.626,132.563h-9.104v-2.101h3.502v-4.202h-3.222v-2.102h8.404v2.102h-3.082v4.202h3.502v2.101Z"/>
      <path class="cls-5" d="M68.326,121.917v10.926h-9.104v-2.521h6.584v-5.883h-3.782v4.062h-4.202v-2.521h1.82v-4.062h8.685Z"/>
      <path class="cls-5" d="M75.323,128.221v4.623h-2.521v-11.346h2.521v4.202h6.303v2.521h-6.303Z"/>
    </g>
  </g>
  <g id="_レイヤー_9" data-name="レイヤー 9">
    <g>
      <path class="cls-6" d="M22.227,162.669c0,.412.257.669.618.669h5.407c.412,0,.669.257.669.618v4.017c0,.361-.257.618-.669.618h-1.133c-.412,0-.669.412-.669.669v4.12c0,.361.258.618.669.618h1.133c.412,0,.669.257.669.669v8.343c0,.412-.257.669-.669.669H3.945c-.258,0-.67-.257-.67-.669v-8.343c0-.412.412-.669.67-.669h1.03c.36,0,.618-.257.618-.618v-4.12c0-.257-.258-.669-.618-.669h-1.03c-.258,0-.67-.257-.67-.618v-4.017c0-.361.412-.618.67-.618h4.635c.36,0,.618-.257.618-.669v-1.391c0-.257.258-.669.669-.669h11.69c.412,0,.669.412.669.669v1.391ZM3.275,186.513c0-.412.412-.669.67-.669h24.307c.412,0,.669.257.669.669v19.93c0,.361-.257.618-.669.618H3.945c-.258,0-.67-.257-.67-.618v-19.93ZM11.154,194.959c0,.257.258.669.618.669h5.665c.258,0,.669-.412.669-.669v-2.678c0-.258-.412-.618-.669-.618h-5.665c-.36,0-.618.36-.618.618v2.678ZM16.562,169.261c0-.257-.257-.669-.669-.669h-3.09c-.36,0-.618.412-.618.669v4.12c0,.361.257.618.618.618h3.09c.412,0,.669-.257.669-.618v-4.12ZM49.778,166.789c0,.258-.155.927-.155,1.288l-1.905,8.755v1.288l1.905,8.394c0,.257.155.875.155,1.288v14.368c0,.412-.258.669-.669.669h-8.601c-.412,0-.669.36-.669.618v2.987c0,.361-.257.618-.618.618h-7.725c-.412,0-.669-.257-.669-.618v-45.164c0-.412.258-.669.669-.669h17.613c.412,0,.669.258.669.669v5.51ZM42.156,178.273c-.103-.412-.103-.927,0-1.288l1.7-8.909c.103-.36-.155-.618-.515-.618h-2.833c-.412,0-.669.257-.669.618v18.437c0,.257.258.618.669.618h2.833c.36,0,.618-.361.515-.618l-1.7-8.24Z"/>
      <path class="cls-6" d="M92.257,187.646c-.412,0-.669.258-.669.669v5.253c0,.412.257.515.412.155l1.545-3.76c.103-.36.515-.618.875-.618h5.305c.36,0,.515.257.36.618l-1.905,4.635c-.155.36,0,.618.36.618h2.06c.412,0,.669.258.669.669v10.557c0,.361-.258.618-.669.618h-12.978c-.412,0-.927-.103-1.184-.36l-4.996-4.274c-.257-.257-.515-.772-.515-1.03v-13.081c0-.412-.258-.669-.67-.669h-7.209c-.36,0-.618.258-.618.669v4.738c0,.412.258.669.618.669h5.562c.258,0,.618.36.618.618v12.102c0,.361-.36.618-.618.618h-23.174c-.412,0-.67-.257-.67-.618v-12.102c0-.257.258-.618.67-.618h1.287c.361,0,.618-.258.618-.669v-4.738c0-.412-.257-.669-.618-.669h-1.287c-.412,0-.67-.36-.67-.618v-7.622c0-.36.258-.618.67-.618h1.287c.361,0,.618-.258.618-.669v-16.84c0-.412.257-.669.669-.669h42.589c.412,0,.669.258.669.669v4.635c0,.257-.258.618-.669.618h-27.552c-.36,0-.618.257-.618.669v.772c0,.361.258.618.618.618h26.264c.257,0,.669.412.669.669v1.648c0,.257-.412.669-.669.669h-26.264c-.36,0-.618.257-.618.618v.412c0,.361.258.618.618.618h26.264c.257,0,.669.257.669.669v1.545c0,.361-.412.618-.669.618h-26.264c-.36,0-.618.412-.618.772v1.288c0,.412.258.669.618.669h27.552c.412,0,.669.257.669.618v7.622c0,.257-.258.618-.669.618h-8.343Z"/>
    </g>
  </g>
  <g id="_レイヤー_6" data-name="レイヤー 6">
    <rect class="cls-6" x="135.212" y="109.932" width="164.7" height="104.241" rx="9.742" ry="9.742"/>
    <g>
      <path class="cls-7" d="M170.094,203.47h-22.016v-4.651l11.938-14.057c2.222-2.584,3.308-4.755,3.308-7.081,0-2.894-2.119-4.341-4.445-4.341-2.429,0-4.237,1.499-4.444,4.341h-6.408c0-6.15,5.064-10.336,11.215-10.336,6.408,0,11.267,4.445,11.267,10.336,0,4.703-3.101,8.373-5.375,11.06l-7.339,8.63h12.3v6.099Z"/>
      <path class="cls-7" d="M196.708,192.565c0,8.011-5.582,11.37-11.99,11.37s-11.99-3.359-11.99-11.37v-13.851c0-8.373,5.582-11.37,11.99-11.37s11.99,2.998,11.99,11.318v13.902ZM184.717,173.443c-3.256,0-4.807,2.067-4.807,5.892v12.61c0,3.824,1.551,5.892,4.807,5.892,3.204,0,4.755-2.067,4.755-5.892v-12.61c0-3.824-1.551-5.892-4.755-5.892Z"/>
      <path class="cls-7" d="M220.737,203.47h-22.017v-4.651l11.938-14.057c2.223-2.584,3.308-4.755,3.308-7.081,0-2.894-2.119-4.341-4.444-4.341-2.429,0-4.238,1.499-4.444,4.341h-6.409c0-6.15,5.065-10.336,11.215-10.336,6.409,0,11.267,4.445,11.267,10.336,0,4.703-3.101,8.373-5.375,11.06l-7.338,8.63h12.3v6.099Z"/>
      <path class="cls-7" d="M241.975,167.81l-11.112,24.445h6.822v-9.096h7.235v9.096h3.256v6.15h-3.256v5.065h-7.235v-5.065h-15.814v-5.013l12.197-25.582h7.907Z"/>
    </g>
    <g>
      <path class="cls-7" d="M258.234,167.059l3.216,6.718,3.241-6.718h4.208l-5.62,10.665v7.371h-3.659v-7.371l-5.62-10.665h4.234Z"/>
      <path class="cls-7" d="M282.094,167.059v3.111h-7.58v4.051h6.796v3.084h-6.796v4.705h7.58v3.084h-11.239v-18.036h11.239Z"/>
      <path class="cls-7" d="M253.739,204.694l6.272-18.036h3.504l6.272,18.036h-3.895l-1.098-3.424h-6.038l-1.098,3.424h-3.921ZM259.724,198.185h4.078l-2.039-6.352-2.039,6.352Z"/>
      <path class="cls-7" d="M281.31,204.694l-3.24-7.083h-2.928v7.083h-3.66v-18.036h6.457c4.155,0,6.743,1.856,6.743,5.516,0,2.431-1.124,4.025-3.084,4.835l3.737,7.685h-4.025ZM277.599,194.526c2.17,0,3.424-.47,3.424-2.352s-1.254-2.405-3.424-2.405h-2.457v4.757h2.457Z"/>
    </g>
    <rect class="cls-7" x="148.026" y="124.253" width="10.713" height="10.713"/>
    <line class="cls-3" x1="161.821" y1="129.61" x2="285.332" y2="129.61"/>
  </g>
  <g id="_レイヤー_5" data-name="レイヤー 5">
    <rect class="cls-6" x="312.139" width="144" height="213.952" rx="13.051" ry="13.051"/>
    <rect class="cls-4" x="322.191" y="22.722" width="20.045" height="20.045"/>
    <g>
      <line class="cls-1" x1="331.445" y1="50.469" x2="331.445" y2="144.797"/>
      <path class="cls-1" d="M353.056,144.797c0-9.433-21.611-83.756-21.611-94.328"/>
      <path class="cls-1" d="M374.667,144.797c0-18.866-43.222-73.184-43.222-94.328"/>
      <path class="cls-1" d="M396.278,144.797c0-28.298-64.833-62.612-64.833-94.328"/>
      <path class="cls-1" d="M417.889,144.797c0-37.731-86.444-52.04-86.444-94.328"/>
      <path class="cls-1" d="M439.5,144.797c0-47.164-108.055-41.468-108.055-94.328"/>
    </g>
    <g>
      <rect class="cls-7" x="326.023" y="151.21" width="10.843" height="10.843"/>
      <rect class="cls-7" x="347.634" y="151.21" width="10.843" height="10.843"/>
      <rect class="cls-7" x="369.245" y="151.21" width="10.843" height="10.843"/>
      <rect class="cls-7" x="390.856" y="151.21" width="10.843" height="10.843"/>
      <rect class="cls-7" x="412.467" y="151.21" width="10.843" height="10.843"/>
      <rect class="cls-7" x="434.078" y="151.21" width="10.843" height="10.843"/>
    </g>
    <polyline class="cls-2" points="326.023 166.313 326.023 174.737 444.921 174.737 444.921 166.313"/>
    <g>
      <path class="cls-7" d="M330.716,199.927h-3.278v-12.742l-2.319,1.522v-3.162l2.646-1.78h2.951v16.161Z"/>
      <path class="cls-7" d="M339.432,190.418c.492-.234.984-.305,1.569-.305,2.482,0,4.427,2.038,4.427,4.825,0,3.583-2.412,5.2-5.41,5.2-3.021,0-5.458-1.593-5.458-5.176,0-1.265.562-2.764,1.476-4.614l3.256-6.582h3.514l-3.373,6.652ZM340.018,197.374c1.405,0,2.131-.937,2.131-2.295,0-1.335-.726-2.272-2.131-2.272-1.452,0-2.179.937-2.179,2.272,0,1.359.727,2.295,2.179,2.295Z"/>
      <path class="cls-7" d="M356.907,194.985c0,3.63-2.529,5.153-5.434,5.153s-5.435-1.522-5.435-5.153v-6.277c0-3.794,2.53-5.153,5.435-5.153s5.434,1.358,5.434,5.129v6.301ZM351.473,186.319c-1.476,0-2.179.937-2.179,2.67v5.715c0,1.733.703,2.67,2.179,2.67,1.452,0,2.154-.937,2.154-2.67v-5.715c0-1.733-.702-2.67-2.154-2.67Z"/>
    </g>
    <g>
      <path class="cls-7" d="M363.029,196.138v2.915h-1.679v-8.275h2.963c1.906,0,3.094.875,3.094,2.65,0,1.751-1.175,2.71-3.094,2.71h-1.284ZM364.073,194.722c1.163,0,1.655-.408,1.655-1.295,0-.792-.492-1.223-1.655-1.223h-1.044v2.519h1.044Z"/>
      <path class="cls-7" d="M372.616,198.14c-.42.732-1.115,1.02-2.194,1.02-1.799,0-2.663-1.163-2.663-2.71v-.815c0-1.811.912-2.687,2.471-2.687,1.691,0,2.471.983,2.471,2.806v.684h-3.418c.012.828.275,1.427,1.127,1.427.636,0,.84-.192,1.067-.516l1.14.792ZM369.282,195.346h1.883c-.036-.779-.348-1.104-.923-1.104-.612,0-.9.42-.96,1.104Z"/>
      <path class="cls-7" d="M378.772,196.402c0,1.643-.78,2.758-2.591,2.758-1.739,0-2.591-1.08-2.591-2.758v-.72c0-1.799.948-2.734,2.591-2.734,1.667,0,2.591.936,2.591,2.734v.72ZM377.249,196.353v-.624c0-.959-.312-1.487-1.067-1.487s-1.067.528-1.067,1.487v.624c0,.864.216,1.511,1.067,1.511.84,0,1.067-.647,1.067-1.511Z"/>
      <path class="cls-7" d="M384.988,196.45c0,1.559-.791,2.71-2.339,2.71-.623,0-1.043-.12-1.319-.348v2.519h-1.535v-8.275h1.535v.396c.288-.324.72-.503,1.332-.503,1.391,0,2.326.971,2.326,2.687v.815ZM383.453,196.353v-.624c0-.959-.3-1.487-1.056-1.487-.731,0-1.067.48-1.067,1.355v.755c0,.864.204,1.511,1.067,1.511.828,0,1.056-.647,1.056-1.511Z"/>
      <path class="cls-7" d="M385.999,190.777h1.535v6.009c0,.647.192.947.84.947v1.319c-1.619,0-2.375-.42-2.375-1.919v-6.356Z"/>
      <path class="cls-7" d="M394.06,198.14c-.42.732-1.115,1.02-2.194,1.02-1.799,0-2.663-1.163-2.663-2.71v-.815c0-1.811.912-2.687,2.471-2.687,1.691,0,2.471.983,2.471,2.806v.684h-3.418c.012.828.275,1.427,1.127,1.427.636,0,.84-.192,1.067-.516l1.14.792ZM390.726,195.346h1.883c-.036-.779-.348-1.104-.924-1.104-.611,0-.899.42-.959,1.104Z"/>
    </g>
    <g>
      <path d="M349.752,32.414h-1.631v-1.643h1.631v1.643ZM349.752,36.767h-1.631v-1.631h1.631v1.631Z"/>
      <path d="M355.068,33.001l2.303-4.509h1.595v8.275h-1.607v-5.133l-1.799,3.646h-1.02l-1.774-3.61v5.097h-1.596v-8.275h1.571l2.327,4.509Z"/>
      <path d="M365.758,28.492v1.427h-3.478v1.859h3.118v1.415h-3.118v2.159h3.478v1.415h-5.157v-8.275h5.157Z"/>
    </g>
  </g>
  <g id="_レイヤー_8" data-name="レイヤー 8">
    <rect class="cls-6" x="135.212" width="164.7" height="98.102" rx="9.451" ry="9.451"/>
    <g>
      <path d="M158.474,21.102v1.667h-4.062v2.396h3.642v1.653h-3.642v3.95h-1.962v-9.665h6.023Z"/>
      <path d="M163.303,25.711c-.183-.266-.435-.532-.883-.532-.672,0-1.12.49-1.12,1.471v4.118h-1.793v-7.004h1.751v.588c.237-.35.7-.714,1.526-.714.841,0,1.471.364,1.891,1.093l-1.372.98Z"/>
      <path d="M170.571,29.703c-.49.854-1.303,1.19-2.563,1.19-2.102,0-3.11-1.358-3.11-3.166v-.953c0-2.115,1.064-3.138,2.886-3.138,1.976,0,2.886,1.148,2.886,3.278v.798h-3.992c.014.967.322,1.667,1.316,1.667.743,0,.98-.224,1.247-.603l1.331.925ZM166.676,26.439h2.199c-.042-.911-.406-1.289-1.078-1.289-.715,0-1.051.49-1.121,1.289Z"/>
      <path d="M177.375,29.703c-.49.854-1.303,1.19-2.563,1.19-2.102,0-3.11-1.358-3.11-3.166v-.953c0-2.115,1.064-3.138,2.886-3.138,1.976,0,2.886,1.148,2.886,3.278v.798h-3.992c.014.967.322,1.667,1.316,1.667.743,0,.98-.224,1.247-.603l1.331.925ZM173.48,26.439h2.199c-.042-.911-.406-1.289-1.079-1.289-.714,0-1.05.49-1.12,1.289Z"/>
      <path d="M187.566,24.1c-.183-.911-.715-1.471-1.667-1.471-1.135,0-1.737.77-1.737,2.619v1.373c0,1.793.603,2.62,1.737,2.62.98,0,1.457-.49,1.667-1.471h1.863c-.322,2.171-1.541,3.124-3.53,3.124-2.171,0-3.698-1.316-3.698-4.272v-1.373c0-2.983,1.527-4.272,3.698-4.272,1.919,0,3.222,1.009,3.544,3.124h-1.877Z"/>
      <path d="M192.688,26.565h1.387v-.406c0-.785-.238-1.037-1.247-1.037-.687,0-1.022.098-1.316.56l-1.261-.882c.518-.854,1.303-1.163,2.745-1.163,1.807,0,2.83.532,2.83,2.535v4.595h-1.751v-.616c-.28.476-.701.742-1.514.742-1.456,0-2.465-.771-2.465-2.199,0-1.485,1.12-2.129,2.592-2.129ZM194.075,27.882h-1.177c-.729,0-1.051.238-1.051.785,0,.532.406.784,1.022.784.812,0,1.205-.35,1.205-1.303v-.266Z"/>
      <path d="M196.732,23.764h.896v-1.541h1.778v1.541h1.373v1.513h-1.373v2.928c0,.701.141.995.799.995h.574v1.569h-.756c-1.695,0-2.396-.476-2.396-2.283v-3.208h-.896v-1.513Z"/>
      <path d="M207.305,29.703c-.49.854-1.303,1.19-2.563,1.19-2.102,0-3.11-1.358-3.11-3.166v-.953c0-2.115,1.064-3.138,2.886-3.138,1.976,0,2.886,1.148,2.886,3.278v.798h-3.992c.014.967.322,1.667,1.316,1.667.743,0,.98-.224,1.247-.603l1.331.925ZM203.411,26.439h2.199c-.042-.911-.406-1.289-1.078-1.289-.715,0-1.051.49-1.121,1.289Z"/>
      <path d="M212.708,23.764h1.779v6.864c0,2.339-1.316,2.886-3.082,2.886-1.303,0-2.129-.308-2.745-1.261l1.204-.869c.309.42.715.63,1.373.63,1.064,0,1.471-.308,1.471-1.387v-.224c-.378.322-.868.49-1.499.49-1.835,0-2.773-1.303-2.773-3.166v-.953c0-2.045,1.106-3.138,2.773-3.138.631,0,1.121.168,1.499.49v-.364ZM212.708,27.77v-.882c0-1.121-.364-1.737-1.246-1.737s-1.247.617-1.247,1.737v.728c0,1.009.28,1.765,1.247,1.765.952,0,1.246-.687,1.246-1.611Z"/>
      <path d="M221.725,27.672c0,1.919-.91,3.222-3.025,3.222-2.031,0-3.026-1.261-3.026-3.222v-.84c0-2.101,1.106-3.194,3.026-3.194,1.946,0,3.025,1.093,3.025,3.194v.84ZM219.946,27.616v-.728c0-1.121-.364-1.737-1.246-1.737s-1.247.617-1.247,1.737v.728c0,1.009.252,1.765,1.247,1.765.98,0,1.246-.756,1.246-1.765Z"/>
      <path d="M226.708,25.711c-.183-.266-.435-.532-.883-.532-.672,0-1.12.49-1.12,1.471v4.118h-1.793v-7.004h1.75v.588c.238-.35.701-.714,1.527-.714.841,0,1.471.364,1.891,1.093l-1.372.98Z"/>
      <path d="M229.885,23.764l1.555,4.482,1.4-4.482h1.808l-2.452,7.326c-.63,1.877-1.246,2.339-3.207,2.339v-1.597c.967,0,1.345-.154,1.639-.966l-2.619-7.102h1.877Z"/>
      <path d="M154.413,51.364v3.404h-1.962v-9.665h3.46c2.228,0,3.614,1.022,3.614,3.096,0,2.045-1.373,3.166-3.614,3.166h-1.498ZM155.63,49.711c1.359,0,1.934-.477,1.934-1.513,0-.925-.574-1.429-1.934-1.429h-1.218v2.942h1.218Z"/>
      <path d="M164.269,49.711c-.183-.266-.435-.532-.883-.532-.672,0-1.12.49-1.12,1.471v4.118h-1.793v-7.004h1.75v.588c.238-.35.701-.714,1.527-.714.841,0,1.471.364,1.891,1.093l-1.372.98Z"/>
      <path d="M171.915,51.672c0,1.919-.91,3.222-3.025,3.222-2.031,0-3.026-1.261-3.026-3.222v-.84c0-2.101,1.106-3.194,3.026-3.194,1.946,0,3.025,1.093,3.025,3.194v.84ZM170.135,51.616v-.728c0-1.121-.364-1.737-1.246-1.737s-1.247.617-1.247,1.737v.728c0,1.009.252,1.765,1.247,1.765.98,0,1.246-.756,1.246-1.765Z"/>
      <path d="M174.796,48.198c.378-.406.91-.561,1.513-.561,1.682,0,2.76,1.093,2.76,3.194v.84c0,1.919-.91,3.222-2.76,3.222-.687,0-1.177-.182-1.513-.546v.42h-1.694v-9.665h1.694v3.096ZM177.29,51.616v-.728c0-1.121-.364-1.737-1.246-1.737s-1.247.617-1.247,1.737v.728c0,1.009.309,1.765,1.247,1.765.966,0,1.246-.756,1.246-1.765Z"/>
      <path d="M180.242,45.102h1.793v7.018c0,.756.224,1.106.98,1.106v1.541c-1.892,0-2.773-.49-2.773-2.241v-7.424Z"/>
      <path d="M189.653,53.703c-.49.854-1.303,1.19-2.563,1.19-2.102,0-3.11-1.358-3.11-3.166v-.953c0-2.115,1.064-3.138,2.886-3.138,1.976,0,2.886,1.148,2.886,3.278v.798h-3.992c.014.967.322,1.667,1.316,1.667.743,0,.98-.224,1.247-.603l1.331.925ZM185.758,50.439h2.199c-.042-.911-.406-1.289-1.078-1.289-.715,0-1.051.49-1.121,1.289Z"/>
      <path d="M196.778,54.767h-1.778v-4.104c0-1.121-.435-1.485-1.064-1.485-.645,0-1.106.476-1.106,1.471v4.118h-1.793v-7.004h1.75v.588c.267-.364.771-.714,1.556-.714.84,0,1.526.322,1.961.938.448-.546,1.135-.938,2.017-.938,1.527,0,2.424.924,2.424,2.746v4.384h-1.793v-4.104c0-1.051-.364-1.485-1.079-1.485-.645,0-1.093.476-1.093,1.471v4.118Z"/>
      <path d="M210.974,48.1c-.183-.911-.715-1.471-1.667-1.471-1.135,0-1.737.77-1.737,2.619v1.373c0,1.793.603,2.62,1.737,2.62.98,0,1.457-.49,1.667-1.471h1.863c-.322,2.171-1.541,3.124-3.53,3.124-2.171,0-3.698-1.316-3.698-4.272v-1.373c0-2.983,1.527-4.272,3.698-4.272,1.919,0,3.222,1.009,3.544,3.124h-1.877Z"/>
      <path d="M216.096,50.565h1.387v-.406c0-.785-.238-1.037-1.247-1.037-.687,0-1.022.098-1.316.56l-1.261-.882c.518-.854,1.303-1.163,2.745-1.163,1.807,0,2.83.532,2.83,2.535v4.595h-1.751v-.616c-.28.476-.701.742-1.514.742-1.456,0-2.465-.771-2.465-2.199,0-1.485,1.12-2.129,2.592-2.129ZM217.483,51.882h-1.177c-.729,0-1.051.238-1.051.785,0,.532.406.784,1.022.784.812,0,1.205-.35,1.205-1.303v-.266Z"/>
      <path d="M220.14,47.764h.896v-1.541h1.778v1.541h1.373v1.513h-1.373v2.928c0,.701.141.995.799.995h.574v1.569h-.756c-1.695,0-2.396-.476-2.396-2.283v-3.208h-.896v-1.513Z"/>
      <path d="M230.713,53.703c-.49.854-1.303,1.19-2.563,1.19-2.102,0-3.11-1.358-3.11-3.166v-.953c0-2.115,1.064-3.138,2.886-3.138,1.976,0,2.886,1.148,2.886,3.278v.798h-3.992c.014.967.322,1.667,1.316,1.667.743,0,.98-.224,1.247-.603l1.331.925ZM226.819,50.439h2.199c-.042-.911-.406-1.289-1.078-1.289-.715,0-1.051.49-1.121,1.289Z"/>
      <path d="M236.116,47.764h1.779v6.864c0,2.339-1.316,2.886-3.082,2.886-1.303,0-2.129-.308-2.745-1.261l1.204-.869c.309.42.715.63,1.373.63,1.064,0,1.471-.308,1.471-1.387v-.224c-.378.322-.868.49-1.499.49-1.835,0-2.773-1.303-2.773-3.166v-.953c0-2.045,1.106-3.138,2.773-3.138.631,0,1.121.168,1.499.49v-.364ZM236.116,51.77v-.882c0-1.121-.364-1.737-1.246-1.737s-1.247.617-1.247,1.737v.728c0,1.009.28,1.765,1.247,1.765.952,0,1.246-.687,1.246-1.611Z"/>
      <path d="M245.133,51.672c0,1.919-.91,3.222-3.025,3.222-2.031,0-3.026-1.261-3.026-3.222v-.84c0-2.101,1.106-3.194,3.026-3.194,1.946,0,3.025,1.093,3.025,3.194v.84ZM243.354,51.616v-.728c0-1.121-.364-1.737-1.246-1.737s-1.247.617-1.247,1.737v.728c0,1.009.252,1.765,1.247,1.765.98,0,1.246-.756,1.246-1.765Z"/>
      <path d="M250.117,49.711c-.183-.266-.435-.532-.883-.532-.672,0-1.12.49-1.12,1.471v4.118h-1.793v-7.004h1.75v.588c.238-.35.701-.714,1.527-.714.841,0,1.471.364,1.891,1.093l-1.372.98Z"/>
      <path d="M253.293,47.764l1.555,4.482,1.4-4.482h1.808l-2.452,7.326c-.63,1.877-1.246,2.339-3.207,2.339v-1.597c.967,0,1.345-.154,1.639-.966l-2.619-7.102h1.877Z"/>
      <path d="M158.474,69.102v1.667h-4.062v2.396h3.642v1.653h-3.642v3.95h-1.962v-9.665h6.023Z"/>
      <path d="M159.647,69.102h1.933v1.737h-1.933v-1.737ZM159.717,71.764h1.793v7.004h-1.793v-7.004Z"/>
      <path d="M163.147,71.764h1.75v.588c.267-.35.827-.714,1.611-.714,1.415,0,2.563.672,2.563,2.746v4.384h-1.779v-4.104c0-1.093-.392-1.485-1.12-1.485-.826,0-1.232.546-1.232,1.471v4.118h-1.793v-7.004Z"/>
      <path d="M172.752,74.565h1.387v-.406c0-.785-.238-1.037-1.247-1.037-.687,0-1.022.098-1.316.56l-1.261-.882c.518-.854,1.303-1.163,2.745-1.163,1.807,0,2.83.532,2.83,2.535v4.595h-1.751v-.616c-.28.476-.701.742-1.514.742-1.456,0-2.465-.771-2.465-2.199,0-1.485,1.12-2.129,2.592-2.129ZM174.139,75.882h-1.177c-.729,0-1.051.238-1.051.785,0,.532.406.784,1.022.784.812,0,1.205-.35,1.205-1.303v-.266Z"/>
      <path d="M177.315,69.102h1.793v7.018c0,.756.224,1.106.98,1.106v1.541c-1.892,0-2.773-.49-2.773-2.241v-7.424Z"/>
      <path d="M190.31,78.767l-1.737-3.796h-1.568v3.796h-1.962v-9.665h3.46c2.228,0,3.614.994,3.614,2.956,0,1.303-.603,2.157-1.653,2.591l2.004,4.118h-2.157ZM188.321,73.319c1.162,0,1.835-.252,1.835-1.261s-.673-1.289-1.835-1.289h-1.316v2.55h1.316Z"/>
      <path d="M199.06,75.672c0,1.919-.911,3.222-3.025,3.222-2.031,0-3.026-1.261-3.026-3.222v-.84c0-2.101,1.107-3.194,3.026-3.194,1.946,0,3.025,1.093,3.025,3.194v.84ZM197.281,75.616v-.728c0-1.121-.364-1.737-1.246-1.737s-1.247.617-1.247,1.737v.728c0,1.009.252,1.765,1.247,1.765.98,0,1.246-.756,1.246-1.765Z"/>
      <path d="M206.172,78.767h-1.751v-.588c-.294.476-.673.714-1.597.714-1.415,0-2.577-.7-2.577-2.759v-4.371h1.793v4.104c0,1.106.392,1.485,1.134,1.485.827,0,1.219-.504,1.219-1.471v-4.118h1.779v7.004Z"/>
      <path d="M207.612,71.764h1.75v.588c.267-.35.827-.714,1.611-.714,1.415,0,2.563.672,2.563,2.746v4.384h-1.779v-4.104c0-1.093-.392-1.485-1.12-1.485-.826,0-1.232.546-1.232,1.471v4.118h-1.793v-7.004Z"/>
      <path d="M218.996,69.102h1.779v9.665h-1.779v-.406c-.364.336-.84.532-1.499.532-1.835,0-2.773-1.303-2.773-3.166v-.953c0-2.045,1.107-3.138,2.773-3.138.603,0,1.107.154,1.499.49v-3.025ZM218.996,75.616v-.882c0-1.022-.406-1.583-1.246-1.583-.883,0-1.247.617-1.247,1.737v.728c0,1.009.28,1.765,1.247,1.765,1.008,0,1.246-.756,1.246-1.765Z"/>
    </g>
    <g>
      <path d="M269.927,78.893h-4.167v-.819l2.368-2.779c.45-.52.7-.969.7-1.449,0-.629-.471-.949-.979-.949-.54,0-.95.33-.979.949h-1.06c0-1.169.939-1.939,2.078-1.939,1.18,0,2.089.8,2.089,1.959,0,.87-.6,1.549-1.039,2.079l-1.629,1.949h2.618v1Z"/>
      <path d="M273.138,78.983c-1.149,0-2.169-.68-2.169-2.109v-2.848c0-1.469,1.02-2.119,2.169-2.119s2.169.65,2.169,2.109v2.858c0,1.429-1.02,2.109-2.169,2.109ZM273.138,72.917c-.63,0-1.02.43-1.02,1.169v2.718c0,.74.39,1.169,1.02,1.169.62,0,1.01-.43,1.01-1.169v-2.718c0-.74-.39-1.169-1.01-1.169Z"/>
      <path d="M280.367,78.893h-4.167v-.819l2.368-2.779c.45-.52.7-.969.7-1.449,0-.629-.471-.949-.979-.949-.54,0-.95.33-.979.949h-1.06c0-1.169.939-1.939,2.078-1.939,1.18,0,2.089.8,2.089,1.959,0,.87-.6,1.549-1.039,2.079l-1.629,1.949h2.618v1Z"/>
      <path d="M284.727,71.997l-2.209,4.847h1.619v-1.879h1.159v1.879h.63v1.009h-.63v1.04h-1.159v-1.04h-3.028v-.819l2.389-5.037h1.229Z"/>
    </g>
  </g>
</svg>